<svg width="14" height="14" viewBox="0 0 14 14" fill="none" xmlns="http://www.w3.org/2000/svg">
<path d="M12.3433 1.24251L6.02577 7.58335C5.95335 7.54139 5.87719 7.50624 5.79827 7.47835L1.62744 6.06668C1.5013 6.03507 1.38935 5.96222 1.30935 5.8597C1.22936 5.75719 1.18591 5.63088 1.18591 5.50085C1.18591 5.37081 1.22936 5.24451 1.30935 5.14199C1.38935 5.03947 1.5013 4.96662 1.62744 4.93501L11.9758 1.25418C12.0434 1.23121 12.1143 1.21939 12.1858 1.21918C12.2392 1.21832 12.2924 1.2262 12.3433 1.24251Z" fill="#84829A"/>
<path d="M12.7459 2.02418L9.06503 12.3842C9.02444 12.5049 8.94545 12.6091 8.84012 12.6807C8.73478 12.7523 8.6089 12.7875 8.4817 12.7808C8.35303 12.7867 8.22602 12.7499 8.1205 12.676C8.01498 12.6021 7.93687 12.4954 7.89836 12.3725L6.51003 8.20168C6.48214 8.12276 6.44699 8.0466 6.40503 7.97418L12.7575 1.65668C12.7934 1.77723 12.7893 1.90614 12.7459 2.02418Z" fill="#84829A"/>
</svg>
